<svg width="101" height="101" viewBox="0 0 101 101" fill="none" xmlns="http://www.w3.org/2000/svg">
<g id="Crown">
<g id="Group">
<path id="Vector" d="M15.4923 85.4798C-3.99743 65.9901 -3.99743 34.2813 15.4923 14.7916C34.982 -4.69811 66.6907 -4.69811 86.1804 14.7916C105.67 34.2813 105.67 65.9901 86.1804 85.4798C66.6907 104.97 34.982 104.97 15.4923 85.4798ZM83.8248 17.1473C65.6338 -1.04379 36.039 -1.04379 17.8527 17.1473C-0.338378 35.3383 -0.338378 64.9331 17.8527 83.1194C36.0437 101.31 65.6385 101.31 83.8248 83.1194C102.016 64.9284 102.016 35.3336 83.8248 17.1473Z" fill="white"/>
<g id="Group_2">
<path id="Vector_2" d="M84.364 39.533C84.1887 39.3576 84.0465 39.1348 83.9659 38.8884C82.2359 33.7695 79.411 29.2336 75.5718 25.3944C71.7374 21.56 67.1968 18.7351 62.0779 17.0004C61.4001 16.7681 60.9451 16.1377 60.9451 15.422V3.27414C60.9451 2.76225 61.182 2.27879 61.5849 1.96123C61.9925 1.64367 62.5186 1.53466 63.0116 1.65789C71.7611 3.84764 79.7712 8.38829 86.1698 14.7916C92.5685 21.195 97.1091 29.2004 99.2989 37.9499C99.4221 38.4476 99.3084 38.9737 98.9955 39.3813C98.678 39.7889 98.1945 40.0212 97.6826 40.0212H85.5347C85.0797 40.0212 84.6626 39.8363 84.3545 39.5282L84.364 39.533ZM77.9275 23.0388C81.8425 26.9538 84.7953 31.5418 86.7197 36.6892H95.5071C93.2984 29.3331 89.2839 22.6122 83.819 17.1473C78.3541 11.6824 71.6332 7.66786 64.2818 5.46389V14.2513C69.4292 16.1709 74.0172 19.1238 77.9322 23.0435L77.9275 23.0388Z" fill="white"/>
<path id="Vector_3" d="M15.4909 85.4797C9.09225 79.0811 4.54685 71.0709 2.3571 62.3214C2.23386 61.8238 2.34762 61.2976 2.66045 60.8948C2.97801 60.4871 3.46144 60.2549 3.97333 60.2549H16.1212C16.8369 60.2549 17.4721 60.7099 17.6996 61.3877C19.4296 66.5066 22.2544 71.0425 26.0936 74.8817C29.928 78.7161 34.4687 81.541 39.5876 83.2757C40.2654 83.5032 40.7204 84.1383 40.7204 84.854V97.0019C40.7204 97.5138 40.4834 97.9973 40.0805 98.3148C39.6729 98.6324 39.1468 98.7414 38.6491 98.6182C29.8996 96.4284 21.8942 91.8878 15.4909 85.4892V85.4797ZM6.15836 63.5822C8.36707 70.9382 12.3816 77.6591 17.8465 83.124C23.3114 88.5889 30.0323 92.6035 37.3884 94.8122V86.0247C32.241 84.1051 27.653 81.1523 23.738 77.2373C19.823 73.3223 16.8701 68.7343 14.9458 63.5869H6.15836V63.5822Z" fill="white"/>
<path id="Vector_4" d="M61.4411 98.1728C61.1283 97.86 60.9529 97.4382 60.9529 96.9926V84.8447C60.9529 84.129 61.4079 83.4939 62.0857 83.2664C67.2046 81.5364 71.7405 78.7115 75.5796 74.8724C79.4188 71.0332 82.2389 66.4973 83.9737 61.3784C84.2012 60.7006 84.8363 60.2456 85.552 60.2456H97.6999C98.2118 60.2456 98.6953 60.4826 99.0128 60.8855C99.3304 61.2883 99.4394 61.8192 99.3162 62.3121C97.1217 71.0616 92.581 79.067 86.1824 85.4704C79.7838 91.8737 71.7737 96.4144 63.0241 98.6041C62.5265 98.7274 62.0004 98.6136 61.5975 98.3008C61.5453 98.2534 61.4932 98.2108 61.4458 98.1634L61.4411 98.1728ZM64.2849 86.0202V94.8076C71.641 92.5989 78.3619 88.5844 83.8268 83.1195C89.2917 77.6546 93.3015 70.9337 95.5149 63.5776H86.7275C84.8079 68.7249 81.855 73.3082 77.9353 77.228C74.0203 81.143 69.4323 84.1006 64.2849 86.0202Z" fill="white"/>
<path id="Vector_5" d="M2.79389 39.533C2.74649 39.4856 2.69911 39.4334 2.66119 39.3813C2.34363 38.9784 2.23461 38.4476 2.35784 37.9499C4.54759 29.2004 9.08825 21.1903 15.4916 14.7916C21.895 8.39302 29.9003 3.84763 38.6498 1.65788C39.1475 1.53465 39.6736 1.64839 40.0765 1.96122C40.4794 2.27878 40.7164 2.76224 40.7164 3.27413V15.422C40.7164 16.1377 40.2614 16.7728 39.5836 17.0003C34.4647 18.7303 29.9288 21.5552 26.0896 25.3944C22.2552 29.2288 19.4303 33.7695 17.6956 38.8884C17.4681 39.5661 16.833 40.0212 16.1173 40.0212H3.96936C3.52382 40.0212 3.09723 39.8458 2.78914 39.5377L2.79389 39.533ZM37.3844 5.46387C30.0283 7.67258 23.3074 11.6871 17.8425 17.152C12.3776 22.6169 8.36781 29.3378 6.15436 36.6939H14.9418C16.8614 31.5466 19.8142 26.9632 23.734 23.0435C27.649 19.1285 32.237 16.1756 37.3844 14.2513V5.46387Z" fill="white"/>
</g>
<path id="Vector_6" d="M77.9316 23.0387C62.9921 8.09915 38.6773 8.09441 23.7377 23.0387C8.79339 37.9831 8.79813 62.2931 23.7377 77.2327C38.6773 92.1723 62.9873 92.177 77.9316 77.2327C92.876 62.2884 92.8712 37.9783 77.9316 23.0387Z" fill="white"/>
<g id="Group_3">
<path id="Vector_7" d="M64.6544 63.8133L37.1268 63.9958C35.9672 64.0035 35.0333 64.9498 35.041 66.1094L35.0475 67.0905C35.0552 68.2501 36.0015 69.1839 37.1611 69.1762L64.6888 68.9937C65.8484 68.986 66.7822 68.0397 66.7745 66.8801L66.768 65.899C66.7603 64.7394 65.814 63.8056 64.6544 63.8133Z" fill="#110A1D"/>
<path id="Vector_8" d="M40.8773 47.1973C40.5787 47.1973 40.2754 47.1309 40.0005 46.9982L37.8534 45.9602C36.9197 45.5052 36.4931 44.4008 36.8817 43.4387L37.8676 40.9835C38.171 40.2346 38.8867 39.7464 39.6924 39.7417C40.0384 39.7417 40.3797 39.827 40.683 40.0024L43.2425 41.4622C43.7212 41.7324 44.0672 42.2016 44.1904 42.7419C44.3136 43.2823 44.2046 43.851 43.8918 44.3061L42.4889 46.3394C42.1239 46.8702 41.5172 47.1925 40.8726 47.1925L40.8773 47.1973Z" fill="#110A1D"/>
<path id="Vector_9" d="M60.6922 47.0645C60.0476 47.0645 59.4362 46.7565 59.0665 46.2304L57.6777 44.2729C57.3554 43.8226 57.2417 43.2538 57.3555 42.7135C57.4692 42.1732 57.8105 41.6992 58.2892 41.4195L60.9292 39.8697C61.2278 39.6943 61.5691 39.5995 61.9151 39.5948C62.7208 39.59 63.446 40.0687 63.7588 40.8129L64.7542 43.1969C65.1523 44.1544 64.7399 45.2682 63.8157 45.7327L61.5691 46.856C61.2989 46.9887 60.9955 47.0645 60.6969 47.0645H60.6922Z" fill="#110A1D"/>
<path id="Vector_10" d="M38.7148 62.1557C37.5061 62.1651 36.4208 61.4068 36.0084 60.2693L31.4156 47.6284C31.1218 47.7706 30.8089 47.8796 30.4914 47.9602C30.1169 48.055 29.7377 48.1024 29.3538 48.1024C29.1311 48.1024 28.913 48.0929 28.6997 48.0645C26.3062 47.7611 24.4909 45.7088 24.4767 43.2916C24.4577 40.6184 26.619 38.4286 29.2922 38.4097C31.9654 38.3907 34.1552 40.552 34.1694 43.2252C34.1694 43.8414 34.0651 44.4339 33.8471 44.9884C33.7286 45.2918 33.5817 45.5809 33.411 45.8558L42.1463 50.0836L48.8294 40.4004C48.5497 40.2819 48.2795 40.1349 48.0236 39.9596C47.5401 39.6325 47.1183 39.2249 46.777 38.7462C46.1988 37.931 45.886 36.9688 45.8812 35.9735C45.8623 33.3003 48.0236 31.1105 50.6968 31.0916C50.8153 31.0916 50.9385 31.0915 51.057 31.101C53.4506 31.2622 55.3844 33.1818 55.5597 35.5753C55.6403 36.7081 55.3417 37.7935 54.6971 38.7178C54.3559 39.2012 53.9387 39.6136 53.46 39.9406C53.2088 40.116 52.9387 40.2629 52.659 40.3814L59.4605 49.9651L68.0536 45.6662C67.8925 45.3581 67.7645 45.0358 67.6697 44.6993C67.556 44.2917 67.4944 43.8651 67.4944 43.4338C67.4944 43.2394 67.5038 43.0451 67.5228 42.8555C67.7977 40.4193 69.8547 38.5708 72.3051 38.5566C74.9783 38.5377 77.1681 40.699 77.1823 43.3722C77.2013 45.9221 75.2201 48.0645 72.6749 48.2398L72.3715 48.2493C71.8786 48.2493 71.3952 48.183 70.9259 48.0408C70.6226 47.946 70.3287 47.8275 70.0538 47.6758L65.7406 60.0702C65.3473 61.2125 64.2666 61.9803 63.0579 61.9898L38.7148 62.1509V62.1557Z" fill="#110A1D"/>
</g>
</g>
</g>
</svg>
