<svg width="100" height="100" viewBox="0 0 100 100" fill="none" xmlns="http://www.w3.org/2000/svg">
<g id="M">
<path id="Vector" d="M49.7325 99.3895C22.4098 99.3895 0.187378 77.1567 0.187378 49.8444C0.187378 22.5321 22.4202 0.299316 49.7325 0.299316C77.0447 0.299316 99.2776 22.5321 99.2776 49.8444C99.2776 77.1567 77.0447 99.3895 49.7325 99.3895ZM49.7325 3.59884C24.2313 3.59884 3.4869 24.3432 3.4869 49.8444C3.4869 75.3456 24.2313 96.09 49.7325 96.09C75.2336 96.09 95.9781 75.3456 95.9781 49.8444C95.9781 24.3432 75.2336 3.59884 49.7325 3.59884Z" fill="#7DDACF"/>
<g id="Group">
<path id="Vector_2" d="M82.0647 14.4911L66.7264 29.8293L69.7441 32.847L85.0823 17.5087L82.0647 14.4911Z" fill="#7DDACF"/>
<path id="Vector_3" d="M29.2638 67.2899L13.9255 82.6282L16.9431 85.6458L32.2814 70.3075L29.2638 67.2899Z" fill="#7DDACF"/>
<path id="Vector_4" d="M70.1932 67.2976L67.1757 70.3152L82.5139 85.6534L85.5315 82.6358L70.1932 67.2976Z" fill="#7DDACF"/>
<path id="Vector_5" d="M16.9393 14.0366L13.9218 17.0542L29.2527 32.3851L32.2703 29.3675L16.9393 14.0366Z" fill="#7DDACF"/>
</g>
<g id="Group_2">
<path id="Vector_6" d="M61.8166 51.1768C62.8158 50.1776 62.8158 48.5642 61.8166 47.5754L59.6932 45.4625C58.694 44.4632 57.0807 44.4632 56.0919 45.4625L54.9469 46.6074L53.625 45.2855C52.6258 44.2863 51.0124 44.2863 50.0236 45.2855L48.8787 46.4409L47.5568 45.1086C46.5575 44.1093 44.9442 44.1093 43.9554 45.1086L36.9295 52.1344C36.8775 52.1864 36.8775 52.2697 36.9295 52.3321C37.8663 53.2689 39.3964 53.2689 40.3436 52.3321L44.8713 47.8044C45.3605 47.3152 46.1516 47.3152 46.6408 47.8044L46.9739 48.1375C47.0363 48.2 47.0363 48.2936 46.9739 48.356L43.1956 52.1344C43.1435 52.1864 43.1435 52.2697 43.1956 52.3321C44.1323 53.2689 45.6624 53.2689 46.6096 52.3321L50.95 47.9918C51.4392 47.5026 52.2303 47.5026 52.7195 47.9918L53.0525 48.3248C53.1045 48.3769 53.1045 48.4602 53.0525 48.5226L49.4095 52.1656C49.3574 52.2177 49.3574 52.301 49.4095 52.3634C50.3463 53.3002 51.8764 53.3002 52.8235 52.3634L57.0182 48.1687C57.5074 47.6795 58.2985 47.6795 58.7877 48.1687L59.5059 48.8869C59.7869 49.1679 59.7869 49.6363 59.5059 49.9173L59.3914 50.0318C59.1104 50.3128 58.642 50.3128 58.3609 50.0318L57.4346 49.1055C57.3825 49.0535 57.2992 49.0535 57.2368 49.1055L55.6339 50.7084C55.5818 50.7604 55.5818 50.8437 55.6339 50.9062L57.0806 52.353C58.0799 53.3522 59.6932 53.3522 60.682 52.353L61.827 51.208L61.8166 51.1768Z" fill="#7DDACF"/>
<path id="Vector_7" d="M49.7336 11.853C28.7498 11.853 11.7421 28.8607 11.7421 49.8445C11.7421 70.8284 28.7498 87.8361 49.7336 87.8361C70.7174 87.8361 87.7251 70.8284 87.7251 49.8445C87.7251 28.8607 70.7174 11.853 49.7336 11.853ZM51.2845 23.5836C57.384 23.9375 62.9214 26.3731 67.2097 30.1827L61.7243 35.668C58.862 33.2428 55.2502 31.6711 51.2845 31.338V23.5836ZM48.1931 23.5836V31.338C44.2274 31.6607 40.6157 33.2428 37.7533 35.668L32.2679 30.1827C36.5563 26.3731 42.0937 23.9375 48.1931 23.5836ZM30.0821 32.3685L35.5674 37.8538C33.1422 40.7162 31.5706 44.328 31.2375 48.2937H23.483C23.8369 42.1942 26.2726 36.6568 30.0821 32.3685ZM23.483 51.3851H31.2375C31.5602 55.3508 33.1422 58.9625 35.5674 61.8249L30.0821 67.3103C26.2726 63.0219 23.8369 57.4845 23.483 51.3851ZM48.1931 76.0952C42.0937 75.7413 36.5563 73.3056 32.2679 69.4961L37.7533 64.0107C40.6157 66.436 44.2274 68.0076 48.1931 68.3407V76.0952ZM33.7668 49.8341C33.7668 41.018 40.9175 33.8673 49.7336 33.8673C58.5497 33.8673 65.7005 41.018 65.7005 49.8341C65.7005 58.6502 58.5497 65.801 49.7336 65.801C40.9175 65.801 33.7668 58.6502 33.7668 49.8341ZM51.2845 76.0952V68.3407C55.2502 68.018 58.862 66.436 61.7243 64.0107L67.2097 69.4961C62.9214 73.3056 57.384 75.7413 51.2845 76.0952ZM69.3955 67.3103L63.9102 61.8249C66.3354 58.9625 67.9071 55.3508 68.2402 51.3851H75.9946C75.6407 57.4845 73.2051 63.0219 69.3955 67.3103ZM68.2402 48.2937C67.9175 44.328 66.3354 40.7162 63.9102 37.8538L69.3955 32.3685C73.2051 36.6568 75.6407 42.1942 75.9946 48.2937H68.2402Z" fill="#7DDACF"/>
</g>
</g>
</svg>
